<svg xmlns="http://www.w3.org/2000/svg" xmlns:xlink="http://www.w3.org/1999/xlink" width="144" zoomAndPan="magnify" viewBox="0 0 108 107.999999" height="144" preserveAspectRatio="xMidYMid meet" version="1.0"><defs><g/></defs><g fill="#ffffff" fill-opacity="1"><g transform="translate(19.113376, 57.382874)"><g><path d="M 15.828125 -0.484375 L 16.453125 -0.484375 L 16.453125 0 L 5.703125 0 L 5.703125 -0.484375 L 6.34375 -0.484375 C 7.1875 -0.484375 7.921875 -0.785156 8.546875 -1.390625 C 9.171875 -2.003906 9.484375 -2.738281 9.484375 -3.59375 L 9.484375 -33.078125 L 4.21875 -32.78125 C 0.914062 -32.582031 -0.734375 -31.382812 -0.734375 -29.1875 C -0.734375 -28.300781 -0.445312 -27.546875 0.125 -26.921875 C 0.695312 -26.304688 1.601562 -25.960938 2.84375 -25.890625 L 2.84375 -25.609375 C 2.382812 -25.503906 1.925781 -25.453125 1.46875 -25.453125 C 0.03125 -25.453125 -1.046875 -26.023438 -1.765625 -27.171875 C -2.191406 -27.828125 -2.40625 -28.550781 -2.40625 -29.34375 C -2.40625 -32.125 -0.296875 -33.742188 3.921875 -34.203125 C 3.960938 -34.203125 5.59375 -34.304688 8.8125 -34.515625 C 12.039062 -34.734375 14.585938 -35.019531 16.453125 -35.375 L 16.5625 -34.890625 C 15.144531 -34.660156 14.140625 -34.1875 13.546875 -33.46875 C 12.960938 -32.75 12.671875 -31.75 12.671875 -30.46875 L 12.671875 -3.59375 C 12.703125 -2.738281 13.019531 -2.003906 13.625 -1.390625 C 14.238281 -0.785156 14.972656 -0.484375 15.828125 -0.484375 Z M 15.828125 -0.484375 "/></g></g></g><g fill="#ffffff" fill-opacity="1"><g transform="translate(38.424078, 57.382874)"><g><path d="M 54.0625 7.953125 C 54.25 7.953125 54.441406 7.953125 54.640625 7.953125 L 54.640625 8.453125 C 53.722656 8.585938 52.695312 8.65625 51.5625 8.65625 C 50.4375 8.65625 49.046875 8.40625 47.390625 7.90625 C 45.742188 7.414062 44.25 6.5 42.90625 5.15625 C 40.144531 2.40625 38.472656 -1.160156 37.890625 -5.546875 L 34.890625 -27.421875 L 24.671875 -4.328125 C 23.753906 -2.328125 23.195312 -0.65625 23 0.6875 L 22.5 0.6875 L 9.78125 -26.984375 L 7.609375 -2.5625 C 7.546875 -2 7.71875 -1.503906 8.125 -1.078125 C 8.539062 -0.648438 8.992188 -0.4375 9.484375 -0.4375 L 10.265625 -0.4375 L 10.265625 0 L 0.734375 0 L 0.734375 -0.484375 L 1.515625 -0.484375 C 2.398438 -0.484375 3.175781 -0.753906 3.84375 -1.296875 C 4.519531 -1.835938 4.941406 -2.550781 5.109375 -3.4375 L 8.203125 -30.265625 C 5.316406 -35.929688 1.863281 -38.765625 -2.15625 -38.765625 C -2.519531 -38.765625 -2.898438 -38.75 -3.296875 -38.71875 L -3.296875 -39.21875 C -2.410156 -39.445312 -1.6875 -39.5625 -1.125 -39.5625 C -0.570312 -39.5625 0.03125 -39.535156 0.6875 -39.484375 C 1.34375 -39.429688 2.113281 -39.273438 3 -39.015625 C 3.882812 -38.753906 4.71875 -38.367188 5.5 -37.859375 C 6.289062 -37.347656 6.976562 -36.820312 7.5625 -36.28125 C 8.15625 -35.75 8.710938 -35.15625 9.234375 -34.5 C 10.117188 -33.320312 10.820312 -32.191406 11.34375 -31.109375 L 23.1875 -5.453125 L 36.40625 -35.09375 L 36.859375 -35.09375 L 41.421875 -6 C 42.109375 -1.40625 43.585938 2.066406 45.859375 4.421875 C 48.140625 6.773438 50.875 7.953125 54.0625 7.953125 Z M 54.0625 7.953125 "/></g></g></g><g fill="#ffffff" fill-opacity="1"><g transform="translate(40.652437, 59.287969)"><g><path d="M 18.03125 -0.5625 L 18.75 -0.5625 L 18.75 0 L 6.5 0 L 6.5 -0.5625 L 7.21875 -0.5625 C 8.195312 -0.5625 9.039062 -0.90625 9.75 -1.59375 C 10.457031 -2.28125 10.8125 -3.109375 10.8125 -4.078125 L 10.8125 -37.671875 L 4.8125 -37.328125 C 1.050781 -37.109375 -0.828125 -35.75 -0.828125 -33.25 C -0.828125 -32.238281 -0.503906 -31.378906 0.140625 -30.671875 C 0.796875 -29.960938 1.832031 -29.570312 3.25 -29.5 L 3.25 -29.15625 C 2.726562 -29.039062 2.207031 -28.984375 1.6875 -28.984375 C 0.0390625 -28.984375 -1.191406 -29.640625 -2.015625 -30.953125 C -2.492188 -31.691406 -2.734375 -32.507812 -2.734375 -33.40625 C -2.734375 -36.582031 -0.328125 -38.429688 4.484375 -38.953125 C 4.523438 -38.953125 6.378906 -39.070312 10.046875 -39.3125 C 13.722656 -39.5625 16.625 -39.890625 18.75 -40.296875 L 18.875 -39.734375 C 17.269531 -39.472656 16.128906 -38.929688 15.453125 -38.109375 C 14.785156 -37.296875 14.453125 -36.160156 14.453125 -34.703125 L 14.453125 -4.078125 C 14.484375 -3.109375 14.84375 -2.28125 15.53125 -1.59375 C 16.226562 -0.90625 17.0625 -0.5625 18.03125 -0.5625 Z M 18.03125 -0.5625 "/></g></g></g><g fill="#ffffff" fill-opacity="1"><g transform="translate(13.696221, 45.331148)"><g><path d="M 1.34375 -0.578125 L 1.796875 -0.484375 C 1.859375 -0.460938 1.882812 -0.414062 1.875 -0.34375 L 1.828125 0 L -0.078125 0 L -0.03125 -0.34375 C -0.0195312 -0.425781 0.0234375 -0.472656 0.109375 -0.484375 L 0.5625 -0.578125 L 1.125 -5.09375 L 0.65625 -5.1875 C 0.59375 -5.195312 0.566406 -5.242188 0.578125 -5.328125 L 0.625 -5.65625 L 2.53125 -5.65625 L 2.484375 -5.328125 C 2.472656 -5.242188 2.425781 -5.191406 2.34375 -5.171875 L 1.890625 -5.09375 Z M 1.34375 -0.578125 "/></g></g></g><g fill="#ffffff" fill-opacity="1"><g transform="translate(16.97256, 45.331148)"><g><path d="M 5.15625 -0.578125 L 5.625 -0.484375 C 5.6875 -0.460938 5.710938 -0.414062 5.703125 -0.34375 L 5.65625 0 L 3.75 0 L 3.796875 -0.34375 C 3.804688 -0.425781 3.847656 -0.472656 3.921875 -0.484375 L 4.390625 -0.578125 L 4.640625 -2.578125 L 1.59375 -2.578125 L 1.34375 -0.578125 C 1.707031 -0.492188 1.882812 -0.414062 1.875 -0.34375 L 1.828125 0 L -0.078125 0 L -0.03125 -0.34375 C -0.0195312 -0.425781 0.0234375 -0.472656 0.109375 -0.484375 L 0.5625 -0.578125 L 1.125 -5.09375 L 0.65625 -5.1875 C 0.59375 -5.195312 0.566406 -5.242188 0.578125 -5.328125 L 0.625 -5.65625 L 2.53125 -5.65625 L 2.484375 -5.328125 C 2.472656 -5.242188 2.441406 -5.195312 2.390625 -5.1875 L 2.234375 -5.15625 C 2.203125 -5.144531 2.160156 -5.132812 2.109375 -5.125 C 2.054688 -5.125 1.984375 -5.113281 1.890625 -5.09375 L 1.65625 -3.140625 L 4.703125 -3.140625 L 4.953125 -5.09375 L 4.484375 -5.1875 C 4.421875 -5.195312 4.394531 -5.242188 4.40625 -5.328125 L 4.4375 -5.65625 L 6.359375 -5.65625 L 6.3125 -5.328125 C 6.300781 -5.242188 6.253906 -5.191406 6.171875 -5.171875 L 5.71875 -5.09375 Z M 5.15625 -0.578125 "/></g></g></g><g fill="#ffffff" fill-opacity="1"><g transform="translate(24.079204, 45.331148)"><g><path d="M 4.515625 -4.296875 L 4.140625 -4.296875 C 4.046875 -4.296875 4 -4.34375 4 -4.4375 C 4 -4.59375 4.003906 -4.796875 4.015625 -5.046875 L 1.890625 -5.046875 L 1.65625 -3.15625 L 3.75 -3.15625 L 3.671875 -2.5625 L 1.59375 -2.5625 L 1.359375 -0.625 L 3.46875 -0.625 L 3.59375 -1.1875 C 3.625 -1.28125 3.6875 -1.328125 3.78125 -1.328125 L 4.15625 -1.328125 L 4 0 L -0.0625 0 L -0.03125 -0.34375 C -0.0195312 -0.425781 0.0234375 -0.472656 0.109375 -0.484375 L 0.5625 -0.578125 L 1.125 -5.09375 L 0.6875 -5.171875 C 0.601562 -5.191406 0.566406 -5.242188 0.578125 -5.328125 L 0.625 -5.65625 L 4.6875 -5.65625 Z M 4.515625 -4.296875 "/></g></g></g><g fill="#ffffff" fill-opacity="1"><g transform="translate(29.57142, 45.331148)"><g><path d="M 3.59375 -2.90625 C 4.332031 -2.757812 4.703125 -2.394531 4.703125 -1.8125 C 4.703125 -1.769531 4.695312 -1.703125 4.6875 -1.609375 C 4.625 -1.128906 4.40625 -0.738281 4.03125 -0.4375 C 3.632812 -0.144531 3.125 0 2.5 0 L -0.078125 0 L -0.03125 -0.34375 C -0.0195312 -0.425781 0.0234375 -0.472656 0.109375 -0.484375 L 0.5625 -0.578125 L 1.125 -5.09375 L 0.6875 -5.171875 C 0.601562 -5.191406 0.566406 -5.242188 0.578125 -5.328125 L 0.625 -5.65625 L 3 -5.65625 C 4.007812 -5.65625 4.601562 -5.375 4.78125 -4.8125 C 4.8125 -4.695312 4.828125 -4.566406 4.828125 -4.421875 C 4.828125 -4.347656 4.828125 -4.289062 4.828125 -4.25 C 4.796875 -4.03125 4.753906 -3.875 4.703125 -3.78125 C 4.628906 -3.644531 4.546875 -3.523438 4.453125 -3.421875 C 4.242188 -3.191406 3.957031 -3.019531 3.59375 -2.90625 Z M 2.671875 -3.125 C 3.296875 -3.125 3.707031 -3.316406 3.90625 -3.703125 C 3.976562 -3.828125 4.023438 -3.957031 4.046875 -4.09375 C 4.046875 -4.132812 4.046875 -4.191406 4.046875 -4.265625 C 4.046875 -4.515625 3.972656 -4.703125 3.828125 -4.828125 C 3.640625 -4.984375 3.335938 -5.0625 2.921875 -5.0625 L 1.890625 -5.0625 L 1.65625 -3.125 Z M 2.5625 -0.609375 C 3.195312 -0.609375 3.613281 -0.8125 3.8125 -1.21875 C 3.875 -1.363281 3.914062 -1.5 3.9375 -1.625 C 3.9375 -1.65625 3.9375 -1.703125 3.9375 -1.765625 C 3.9375 -1.992188 3.859375 -2.179688 3.703125 -2.328125 C 3.523438 -2.492188 3.226562 -2.578125 2.8125 -2.578125 L 1.578125 -2.578125 L 1.34375 -0.609375 Z M 2.5625 -0.609375 "/></g></g></g><g fill="#ffffff" fill-opacity="1"><g transform="translate(35.475161, 45.331148)"><g/></g></g><g fill="#ffffff" fill-opacity="1"><g transform="translate(38.070902, 45.331148)"><g><path d="M 1.703125 -4.546875 C 1.703125 -4.410156 1.695312 -4.28125 1.6875 -4.15625 L 1.234375 -0.578125 L 1.765625 -0.484375 C 1.835938 -0.460938 1.867188 -0.414062 1.859375 -0.34375 L 1.8125 0 L -0.078125 0 L -0.03125 -0.34375 C -0.0195312 -0.425781 0.0234375 -0.472656 0.109375 -0.484375 L 0.5625 -0.578125 L 1.125 -5.09375 L 0.6875 -5.171875 C 0.601562 -5.191406 0.566406 -5.242188 0.578125 -5.328125 L 0.625 -5.65625 L 1.75 -5.65625 C 1.832031 -5.65625 1.882812 -5.648438 1.90625 -5.640625 C 1.945312 -5.617188 1.984375 -5.582031 2.015625 -5.53125 L 3.53125 -2.046875 C 3.570312 -1.972656 3.613281 -1.835938 3.65625 -1.640625 C 3.707031 -1.742188 3.785156 -1.882812 3.890625 -2.0625 L 6.234375 -5.53125 C 6.265625 -5.582031 6.304688 -5.617188 6.359375 -5.640625 C 6.390625 -5.648438 6.441406 -5.65625 6.515625 -5.65625 L 7.65625 -5.65625 L 7.625 -5.328125 C 7.613281 -5.242188 7.566406 -5.191406 7.484375 -5.171875 L 7.015625 -5.09375 L 6.453125 -0.578125 L 6.90625 -0.484375 C 6.976562 -0.472656 7.007812 -0.425781 7 -0.34375 L 6.96875 0 L 5.078125 0 L 5.109375 -0.34375 C 5.117188 -0.425781 5.164062 -0.472656 5.25 -0.484375 L 5.78125 -0.578125 L 6.234375 -4.15625 L 6.296875 -4.53125 L 3.90625 -1 C 3.832031 -0.875 3.738281 -0.8125 3.625 -0.8125 L 3.515625 -0.8125 C 3.390625 -0.8125 3.300781 -0.875 3.25 -1 Z M 1.703125 -4.546875 "/></g></g></g><g fill="#ffffff" fill-opacity="1"><g transform="translate(46.483341, 45.331148)"><g><path d="M 5.5625 -0.4375 C 5.625 -0.425781 5.648438 -0.382812 5.640625 -0.3125 L 5.609375 0 L 3.984375 0 L 4.03125 -0.3125 C 4.03125 -0.382812 4.066406 -0.425781 4.140625 -0.4375 L 4.484375 -0.53125 L 4.1875 -1.671875 L 1.734375 -1.671875 L 1.15625 -0.53125 L 1.46875 -0.4375 C 1.53125 -0.425781 1.5625 -0.382812 1.5625 -0.3125 L 1.515625 0 L -0.109375 0 L -0.078125 -0.3125 C -0.0664062 -0.382812 -0.0234375 -0.425781 0.046875 -0.4375 L 0.375 -0.53125 L 3.0625 -5.65625 L 3.828125 -5.65625 L 5.25 -0.53125 Z M 3.46875 -4.40625 C 3.425781 -4.53125 3.390625 -4.707031 3.359375 -4.9375 C 3.253906 -4.695312 3.175781 -4.519531 3.125 -4.40625 L 2.015625 -2.234375 L 4.03125 -2.234375 Z M 3.46875 -4.40625 "/></g></g></g><g fill="#ffffff" fill-opacity="1"><g transform="translate(53.487112, 45.331148)"><g><path d="M 3.0625 -3 C 3.539062 -2.769531 3.78125 -2.410156 3.78125 -1.921875 C 3.78125 -1.878906 3.773438 -1.8125 3.765625 -1.71875 C 3.703125 -1.195312 3.488281 -0.773438 3.125 -0.453125 C 2.726562 -0.109375 2.238281 0.0625 1.65625 0.0625 C 1.445312 0.0625 1.191406 0.0351562 0.890625 -0.015625 C 0.628906 -0.0546875 0.421875 -0.101562 0.265625 -0.15625 L 0.046875 -0.234375 L 0.234375 -1.65625 L 0.609375 -1.65625 C 0.691406 -1.65625 0.738281 -1.613281 0.75 -1.53125 L 0.75 -1.140625 L 0.734375 -0.796875 C 1.109375 -0.640625 1.414062 -0.5625 1.65625 -0.5625 C 1.882812 -0.5625 2.082031 -0.585938 2.25 -0.640625 C 2.394531 -0.691406 2.523438 -0.765625 2.640625 -0.859375 C 2.859375 -1.046875 2.988281 -1.296875 3.03125 -1.609375 C 3.039062 -1.640625 3.046875 -1.679688 3.046875 -1.734375 C 3.046875 -1.972656 2.929688 -2.164062 2.703125 -2.3125 C 2.578125 -2.382812 2.441406 -2.445312 2.296875 -2.5 C 1.796875 -2.664062 1.476562 -2.78125 1.34375 -2.84375 C 1.195312 -2.90625 1.0625 -2.992188 0.9375 -3.109375 C 0.726562 -3.316406 0.625 -3.59375 0.625 -3.9375 C 0.625 -3.988281 0.628906 -4.066406 0.640625 -4.171875 C 0.703125 -4.597656 0.898438 -4.957031 1.234375 -5.25 C 1.597656 -5.5625 2.035156 -5.71875 2.546875 -5.71875 C 3.078125 -5.71875 3.597656 -5.613281 4.109375 -5.40625 L 3.9375 -4.109375 L 3.5625 -4.109375 C 3.476562 -4.109375 3.429688 -4.148438 3.421875 -4.234375 C 3.421875 -4.398438 3.425781 -4.632812 3.4375 -4.9375 C 3.101562 -5.039062 2.796875 -5.09375 2.515625 -5.09375 C 2.179688 -5.09375 1.910156 -5.007812 1.703125 -4.84375 C 1.472656 -4.65625 1.359375 -4.414062 1.359375 -4.125 C 1.359375 -3.882812 1.472656 -3.691406 1.703125 -3.546875 C 1.847656 -3.460938 1.988281 -3.398438 2.125 -3.359375 C 2.582031 -3.191406 2.894531 -3.070312 3.0625 -3 Z M 3.0625 -3 "/></g></g></g><g fill="#ffffff" fill-opacity="1"><g transform="translate(58.51241, 45.331148)"><g><path d="M 1.703125 -4.546875 C 1.703125 -4.410156 1.695312 -4.28125 1.6875 -4.15625 L 1.234375 -0.578125 L 1.765625 -0.484375 C 1.835938 -0.460938 1.867188 -0.414062 1.859375 -0.34375 L 1.8125 0 L -0.078125 0 L -0.03125 -0.34375 C -0.0195312 -0.425781 0.0234375 -0.472656 0.109375 -0.484375 L 0.5625 -0.578125 L 1.125 -5.09375 L 0.6875 -5.171875 C 0.601562 -5.191406 0.566406 -5.242188 0.578125 -5.328125 L 0.625 -5.65625 L 1.75 -5.65625 C 1.832031 -5.65625 1.882812 -5.648438 1.90625 -5.640625 C 1.945312 -5.617188 1.984375 -5.582031 2.015625 -5.53125 L 3.53125 -2.046875 C 3.570312 -1.972656 3.613281 -1.835938 3.65625 -1.640625 C 3.707031 -1.742188 3.785156 -1.882812 3.890625 -2.0625 L 6.234375 -5.53125 C 6.265625 -5.582031 6.304688 -5.617188 6.359375 -5.640625 C 6.390625 -5.648438 6.441406 -5.65625 6.515625 -5.65625 L 7.65625 -5.65625 L 7.625 -5.328125 C 7.613281 -5.242188 7.566406 -5.191406 7.484375 -5.171875 L 7.015625 -5.09375 L 6.453125 -0.578125 L 6.90625 -0.484375 C 6.976562 -0.472656 7.007812 -0.425781 7 -0.34375 L 6.96875 0 L 5.078125 0 L 5.109375 -0.34375 C 5.117188 -0.425781 5.164062 -0.472656 5.25 -0.484375 L 5.78125 -0.578125 L 6.234375 -4.15625 L 6.296875 -4.53125 L 3.90625 -1 C 3.832031 -0.875 3.738281 -0.8125 3.625 -0.8125 L 3.515625 -0.8125 C 3.390625 -0.8125 3.300781 -0.875 3.25 -1 Z M 1.703125 -4.546875 "/></g></g></g><g fill="#ffffff" fill-opacity="1"><g transform="translate(66.924851, 45.331148)"><g><path d="M 5.734375 -2.828125 C 5.671875 -2.390625 5.554688 -2 5.390625 -1.65625 C 5.191406 -1.289062 4.960938 -0.988281 4.703125 -0.75 C 4.421875 -0.488281 4.101562 -0.289062 3.75 -0.15625 C 3.382812 -0.0078125 2.992188 0.0625 2.578125 0.0625 C 2.160156 0.0625 1.789062 -0.0078125 1.46875 -0.15625 C 1.132812 -0.300781 0.863281 -0.5 0.65625 -0.75 C 0.4375 -1 0.285156 -1.300781 0.203125 -1.65625 C 0.140625 -1.90625 0.109375 -2.144531 0.109375 -2.375 C 0.109375 -2.53125 0.117188 -2.679688 0.140625 -2.828125 C 0.203125 -3.265625 0.316406 -3.65625 0.484375 -4 C 0.679688 -4.363281 0.910156 -4.671875 1.171875 -4.921875 C 1.460938 -5.179688 1.78125 -5.378906 2.125 -5.515625 C 2.476562 -5.648438 2.863281 -5.71875 3.28125 -5.71875 C 3.71875 -5.71875 4.09375 -5.648438 4.40625 -5.515625 C 4.71875 -5.378906 4.984375 -5.179688 5.203125 -4.921875 C 5.429688 -4.640625 5.585938 -4.332031 5.671875 -4 C 5.722656 -3.75 5.75 -3.5 5.75 -3.25 C 5.75 -3.113281 5.742188 -2.972656 5.734375 -2.828125 Z M 4.9375 -2.828125 C 4.957031 -2.984375 4.96875 -3.128906 4.96875 -3.265625 C 4.96875 -3.441406 4.953125 -3.609375 4.921875 -3.765625 C 4.859375 -4.046875 4.75 -4.28125 4.59375 -4.46875 C 4.445312 -4.65625 4.253906 -4.800781 4.015625 -4.90625 C 3.785156 -5.007812 3.515625 -5.0625 3.203125 -5.0625 C 2.898438 -5.0625 2.617188 -5.007812 2.359375 -4.90625 C 2.097656 -4.8125 1.867188 -4.664062 1.671875 -4.46875 C 1.472656 -4.28125 1.3125 -4.046875 1.1875 -3.765625 C 1.050781 -3.460938 0.960938 -3.148438 0.921875 -2.828125 C 0.910156 -2.679688 0.90625 -2.546875 0.90625 -2.421875 C 0.90625 -2.222656 0.921875 -2.046875 0.953125 -1.890625 C 1.015625 -1.609375 1.117188 -1.375 1.265625 -1.1875 C 1.421875 -1 1.613281 -0.859375 1.84375 -0.765625 C 2.09375 -0.648438 2.367188 -0.59375 2.671875 -0.59375 C 2.960938 -0.59375 3.242188 -0.648438 3.515625 -0.765625 C 3.773438 -0.867188 4.003906 -1.007812 4.203125 -1.1875 C 4.398438 -1.382812 4.5625 -1.617188 4.6875 -1.890625 C 4.820312 -2.179688 4.90625 -2.492188 4.9375 -2.828125 Z M 4.9375 -2.828125 "/></g></g></g><g fill="#ffffff" fill-opacity="1"><g transform="translate(73.754514, 45.331148)"><g><path d="M 5.953125 -5.328125 C 5.929688 -5.242188 5.878906 -5.191406 5.796875 -5.171875 L 5.34375 -5.09375 L 4.984375 -2.21875 C 4.910156 -1.5625 4.644531 -1.015625 4.1875 -0.578125 C 3.726562 -0.148438 3.148438 0.0625 2.453125 0.0625 C 1.773438 0.0625 1.253906 -0.148438 0.890625 -0.578125 C 0.597656 -0.929688 0.453125 -1.359375 0.453125 -1.859375 C 0.453125 -1.972656 0.460938 -2.09375 0.484375 -2.21875 L 0.828125 -5.09375 L 0.390625 -5.171875 C 0.316406 -5.191406 0.285156 -5.242188 0.296875 -5.328125 L 0.328125 -5.65625 L 2.3125 -5.65625 L 2.265625 -5.328125 C 2.253906 -5.242188 2.207031 -5.191406 2.125 -5.171875 L 1.59375 -5.09375 L 1.234375 -2.234375 C 1.222656 -2.109375 1.21875 -2.007812 1.21875 -1.9375 C 1.21875 -1.582031 1.3125 -1.289062 1.5 -1.0625 C 1.726562 -0.757812 2.070312 -0.609375 2.53125 -0.609375 C 3 -0.609375 3.382812 -0.757812 3.6875 -1.0625 C 4 -1.351562 4.179688 -1.738281 4.234375 -2.21875 L 4.578125 -5.09375 C 4.398438 -5.125 4.273438 -5.144531 4.203125 -5.15625 C 4.128906 -5.164062 4.082031 -5.171875 4.0625 -5.171875 C 3.976562 -5.191406 3.945312 -5.242188 3.96875 -5.328125 L 4 -5.65625 L 5.984375 -5.65625 Z M 5.953125 -5.328125 "/></g></g></g><g fill="#ffffff" fill-opacity="1"><g transform="translate(80.473384, 45.331148)"><g><path d="M 5.6875 -2.828125 C 5.632812 -2.421875 5.519531 -2.035156 5.34375 -1.671875 C 5.15625 -1.304688 4.929688 -1.007812 4.671875 -0.78125 C 4.097656 -0.257812 3.390625 0 2.546875 0 L -0.0625 0 L -0.03125 -0.34375 C -0.0195312 -0.425781 0.0234375 -0.472656 0.109375 -0.484375 L 0.5625 -0.578125 L 1.125 -5.09375 L 0.6875 -5.171875 C 0.601562 -5.191406 0.566406 -5.242188 0.578125 -5.328125 L 0.625 -5.65625 L 3.234375 -5.65625 C 4.066406 -5.65625 4.707031 -5.398438 5.15625 -4.890625 C 5.53125 -4.453125 5.71875 -3.914062 5.71875 -3.28125 C 5.71875 -3.1875 5.707031 -3.035156 5.6875 -2.828125 Z M 4.890625 -2.828125 C 4.910156 -2.984375 4.921875 -3.128906 4.921875 -3.265625 C 4.921875 -3.441406 4.90625 -3.609375 4.875 -3.765625 C 4.8125 -4.046875 4.703125 -4.273438 4.546875 -4.453125 C 4.242188 -4.847656 3.78125 -5.046875 3.15625 -5.046875 L 1.890625 -5.046875 L 1.359375 -0.609375 L 2.625 -0.609375 C 3.238281 -0.609375 3.75 -0.804688 4.15625 -1.203125 C 4.5625 -1.585938 4.804688 -2.128906 4.890625 -2.828125 Z M 4.890625 -2.828125 "/></g></g></g><g fill="#ffffff" fill-opacity="1"><g transform="translate(87.263479, 45.331148)"><g><path d="M 1.34375 -0.578125 L 1.796875 -0.484375 C 1.859375 -0.460938 1.882812 -0.414062 1.875 -0.34375 L 1.828125 0 L -0.078125 0 L -0.03125 -0.34375 C -0.0195312 -0.425781 0.0234375 -0.472656 0.109375 -0.484375 L 0.5625 -0.578125 L 1.125 -5.09375 L 0.65625 -5.1875 C 0.59375 -5.195312 0.566406 -5.242188 0.578125 -5.328125 L 0.625 -5.65625 L 2.53125 -5.65625 L 2.484375 -5.328125 C 2.472656 -5.242188 2.425781 -5.191406 2.34375 -5.171875 L 1.890625 -5.09375 Z M 1.34375 -0.578125 "/></g></g></g></svg>